<?xml version="1.0" standalone="no"?>
<!DOCTYPE svg PUBLIC "-//W3C//DTD SVG 20010904//EN"
 "http://www.w3.org/TR/2001/REC-SVG-20010904/DTD/svg10.dtd">
<svg version="1.0" xmlns="http://www.w3.org/2000/svg"
 width="1633.000000pt" height="980.000000pt" viewBox="0 0 1633.000000 980.000000"
 preserveAspectRatio="xMidYMid meet">

<g transform="translate(0.000000,980.000000) scale(0.100000,-0.100000)"
fill="#000000" stroke="none">
<path d="M6039 6896 c-2 -2 -35 -6 -74 -9 -147 -12 -321 -52 -475 -108 -47
-17 -94 -33 -105 -36 -32 -9 -243 -121 -299 -158 -207 -137 -376 -297 -531
-500 -58 -75 -135 -196 -135 -210 0 -8 -4 -15 -10 -17 -17 -5 -119 -245 -155
-362 -31 -103 -49 -187 -74 -341 -10 -57 -7 -450 4 -525 43 -322 154 -605 342
-875 31 -44 59 -82 62 -85 3 -3 31 -34 61 -70 209 -245 476 -438 765 -552 120
-47 299 -100 380 -112 78 -11 120 -18 140 -23 75 -16 409 -9 525 11 468 82
782 249 1109 590 106 111 101 105 156 173 133 162 178 229 170 254 -3 9 -16
33 -29 51 -13 19 -39 63 -58 99 -20 35 -53 93 -73 129 -21 36 -58 101 -82 145
-65 115 -65 116 -98 58 -16 -26 -44 -69 -62 -94 -18 -26 -33 -49 -33 -53 0
-10 -182 -247 -235 -306 -158 -174 -340 -313 -505 -383 -36 -16 -74 -32 -85
-37 -45 -20 -166 -50 -255 -64 -95 -15 -363 -15 -440 -1 -303 57 -529 168
-745 364 -51 47 -111 109 -131 136 -21 28 -41 52 -45 55 -25 19 -143 227 -184
325 -41 100 -80 244 -93 350 -9 71 -8 298 1 375 26 204 128 465 249 635 158
222 385 399 646 505 169 68 333 98 527 98 114 0 175 -6 325 -33 128 -22 432
-163 490 -225 3 -3 32 -27 65 -52 53 -40 164 -151 235 -234 46 -53 185 -238
222 -294 52 -79 228 -371 228 -377 0 -3 23 -44 51 -92 28 -47 54 -93 58 -101
4 -8 24 -44 43 -80 20 -36 52 -96 73 -135 21 -38 64 -116 96 -172 33 -56 59
-104 59 -107 0 -5 126 -218 174 -296 30 -47 149 -225 185 -277 141 -199 385
-455 555 -581 105 -77 311 -196 393 -226 21 -8 63 -24 93 -36 190 -72 448
-111 695 -105 160 4 193 7 325 32 467 85 906 350 1197 723 55 70 84 111 108
149 6 9 22 34 36 56 132 206 248 546 276 805 10 97 10 367 0 447 -16 131 -20
151 -44 252 -84 356 -284 706 -549 961 -118 113 -161 148 -274 224 -271 183
-597 302 -905 333 -144 14 -427 8 -525 -12 -14 -3 -50 -9 -80 -15 -271 -47
-591 -194 -806 -370 -159 -131 -279 -251 -403 -405 -31 -38 -58 -72 -62 -75
-14 -13 -69 -100 -69 -111 0 -6 20 -45 45 -86 25 -40 45 -76 45 -78 0 -3 16
-29 35 -59 19 -30 35 -57 35 -60 0 -3 15 -29 34 -58 18 -29 49 -82 69 -118 19
-35 40 -66 45 -68 5 -1 22 19 38 45 35 61 129 197 166 243 16 19 32 40 36 45
4 6 34 42 67 80 247 288 497 445 820 516 136 31 395 34 540 8 207 -37 394
-113 560 -228 334 -232 544 -559 610 -951 18 -111 13 -382 -10 -505 -57 -308
-213 -581 -453 -792 -234 -207 -493 -322 -797 -354 -101 -10 -314 -7 -375 5
-14 3 -50 11 -80 16 -152 30 -361 124 -491 222 -113 85 -180 149 -279 264
-183 213 -336 446 -566 859 -15 28 -36 66 -47 85 -11 19 -38 69 -60 110 -22
41 -48 87 -58 102 -11 14 -19 29 -19 32 0 3 -25 49 -57 103 -68 118 -88 154
-121 213 -42 76 -81 143 -140 235 -6 11 -15 27 -19 35 -3 8 -27 44 -52 80 -25
36 -57 81 -71 101 -129 188 -398 467 -565 587 -264 190 -584 320 -855 348 -36
3 -68 8 -72 11 -9 5 -343 14 -349 9z"/>
<path d="M6050 5851 c-327 -38 -625 -257 -762 -560 -108 -236 -108 -545 -1
-782 73 -159 217 -326 359 -415 90 -56 216 -108 315 -130 98 -22 299 -22 396
0 322 71 577 288 695 592 60 155 79 321 54 482 -9 57 -19 110 -24 118 -6 10
-19 -3 -51 -51 -81 -124 -209 -194 -367 -203 -75 -4 -105 -1 -161 16 -73 23
-171 81 -214 128 -150 163 -171 421 -50 598 39 57 97 112 149 143 24 14 41 27
38 30 -24 25 -266 47 -376 34z"/>
<path d="M10049 5850 c-407 -51 -743 -358 -824 -755 -21 -104 -21 -286 0 -390
99 -479 554 -809 1039 -755 452 51 796 396 848 851 11 102 1 247 -23 332 l-10
38 -32 -47 c-42 -63 -106 -127 -159 -158 -212 -123 -486 -70 -630 121 -73 98
-92 157 -93 293 0 112 1 117 37 193 41 86 118 174 186 214 24 14 41 27 38 30
-2 2 -30 10 -62 18 -78 18 -233 26 -315 15z"/>
</g>
</svg>
